<?xml version="1.0" encoding="iso-8859-1"?>
<!-- Generator: Adobe Illustrator 16.0.0, SVG Export Plug-In . SVG Version: 6.00 Build 0)  -->
<!DOCTYPE svg PUBLIC "-//W3C//DTD SVG 1.1//EN" "http://www.w3.org/Graphics/SVG/1.1/DTD/svg11.dtd">
<svg version="1.1" id="Capa_1" xmlns="http://www.w3.org/2000/svg" xmlns:xlink="http://www.w3.org/1999/xlink" x="0px" y="0px"
	 width="422.966px" height="422.966px" viewBox="0 0 422.966 422.966" style="enable-background:new 0 0 422.966 422.966;"
	 xml:space="preserve">
<g>
	<path d="M313.853,334.852h19.401c7.962,0,14.418-6.461,14.418-14.424c0-7.962-6.456-14.429-14.418-14.429h-33.267l-26.77-55.743
		c27.49-18.422,45.625-49.746,45.625-85.244c0-51.638-38.407-94.375-88.139-101.409V14.424C230.705,6.461,224.255,0,216.291,0
		c-7.963,0-14.427,6.461-14.427,14.424v49.179c-49.72,7.041-88.124,49.771-88.124,101.409c0,34.335,17.018,64.708,42.991,83.323
		l-29.964,57.67H99.326c-7.975,0-14.427,6.461-14.427,14.423c0,7.963,6.452,14.43,14.427,14.43h12.439l-34.846,67.044
		c-3.666,7.056-0.922,15.763,6.149,19.443c2.128,1.104,4.41,1.621,6.641,1.621c5.203,0,10.232-2.822,12.802-7.771l41.77-80.344
		h57.583v14.412c0,7.962,6.464,14.423,14.427,14.423c7.965,0,14.414-6.461,14.414-14.423v-14.412h51.148l38.395,79.936
		c2.469,5.164,7.633,8.179,13.001,8.179c2.09,0,4.222-0.444,6.251-1.417c7.17-3.446,10.178-12.058,6.749-19.239L313.853,334.852z
		 M230.705,306.005v-1.598c0-7.95-6.449-14.411-14.414-14.411c-7.963,0-14.427,6.461-14.427,14.411v1.598h-42.598l23.034-44.34
		c10.662,3.747,22.062,5.897,33.984,5.897c10.788,0,21.17-1.693,30.952-4.792L268,306.005H230.705z"/>
</g>
<g>
</g>
<g>
</g>
<g>
</g>
<g>
</g>
<g>
</g>
<g>
</g>
<g>
</g>
<g>
</g>
<g>
</g>
<g>
</g>
<g>
</g>
<g>
</g>
<g>
</g>
<g>
</g>
<g>
</g>
</svg>
